<svg width="215" height="241" viewBox="0 0 215 241" fill="none" xmlns="http://www.w3.org/2000/svg">
<path d="M7.47702 238C6.77169 238 6.15836 237.739 5.63702 237.218C5.11569 236.697 4.85502 236.083 4.85502 235.378V207.042C4.85502 206.337 5.11569 205.723 5.63702 205.202C6.15836 204.681 6.77169 204.42 7.47702 204.42H10.099C10.8044 204.42 11.4024 204.681 11.893 205.202C12.4144 205.723 12.675 206.337 12.675 207.042V218.772C12.675 218.803 12.6904 218.818 12.721 218.818C12.7824 218.818 12.813 218.803 12.813 218.772L20.633 206.628C21.553 205.156 22.887 204.42 24.635 204.42H28.499C29.051 204.42 29.4497 204.665 29.695 205.156C29.9404 205.647 29.9097 206.122 29.603 206.582L20.265 220.198C20.1117 220.413 20.1117 220.627 20.265 220.842L30.109 235.838C30.4157 236.298 30.431 236.773 30.155 237.264C29.9097 237.755 29.511 238 28.959 238H25.095C23.347 238 22.0284 237.264 21.139 235.792L12.813 222.268C12.813 222.237 12.7824 222.222 12.721 222.222C12.6904 222.222 12.675 222.237 12.675 222.268V235.378C12.675 236.083 12.4144 236.697 11.893 237.218C11.4024 237.739 10.8044 238 10.099 238H7.47702ZM38.9985 238C38.2932 238 37.6799 237.739 37.1585 237.218C36.6679 236.697 36.4225 236.083 36.4225 235.378V207.042C36.4225 206.337 36.6679 205.723 37.1585 205.202C37.6799 204.681 38.2932 204.42 38.9985 204.42H55.2825C55.9879 204.42 56.5859 204.681 57.0765 205.202C57.5979 205.723 57.8585 206.337 57.8585 207.042V208.1C57.8585 208.805 57.5979 209.419 57.0765 209.94C56.5859 210.461 55.9879 210.722 55.2825 210.722H44.6105C44.3652 210.722 44.2425 210.845 44.2425 211.09V217.162C44.2425 217.438 44.3652 217.576 44.6105 217.576H54.3625C55.0679 217.576 55.6659 217.837 56.1565 218.358C56.6779 218.879 56.9385 219.493 56.9385 220.198V220.888C56.9385 221.593 56.6779 222.207 56.1565 222.728C55.6659 223.249 55.0679 223.51 54.3625 223.51H44.6105C44.3652 223.51 44.2425 223.633 44.2425 223.878V231.33C44.2425 231.575 44.3652 231.698 44.6105 231.698H55.2825C55.9879 231.698 56.5859 231.959 57.0765 232.48C57.5979 233.001 57.8585 233.615 57.8585 234.32V235.378C57.8585 236.083 57.5979 236.697 57.0765 237.218C56.5859 237.739 55.9879 238 55.2825 238H38.9985ZM73.3789 224.752L63.8109 206.72C63.5349 206.199 63.5502 205.693 63.8569 205.202C64.1635 204.681 64.6235 204.42 65.2369 204.42H68.9629C69.7602 204.42 70.4809 204.635 71.1249 205.064C71.7689 205.493 72.2442 206.076 72.5509 206.812L77.6109 218.772C77.6109 218.803 77.6262 218.818 77.6569 218.818C77.6875 218.818 77.7029 218.803 77.7029 218.772L82.7629 206.812C83.0695 206.076 83.5449 205.493 84.1889 205.064C84.8329 204.635 85.5535 204.42 86.3509 204.42H89.8929C90.4755 204.42 90.9202 204.681 91.2269 205.202C91.5642 205.693 91.5949 206.199 91.3189 206.72L81.7509 224.752C81.6282 224.967 81.5669 225.227 81.5669 225.534V235.378C81.5669 236.083 81.3062 236.697 80.7849 237.218C80.2942 237.739 79.6962 238 78.9909 238H76.1389C75.4335 238 74.8202 237.739 74.2989 237.218C73.7775 236.697 73.5169 236.083 73.5169 235.378V225.534C73.5169 225.166 73.4709 224.905 73.3789 224.752ZM104.679 223.74V231.836C104.679 232.112 104.817 232.281 105.093 232.342C105.737 232.465 106.519 232.526 107.439 232.526C109.616 232.526 111.211 232.127 112.223 231.33C113.235 230.502 113.741 229.245 113.741 227.558C113.741 224.737 111.441 223.326 106.841 223.326H105.047C104.802 223.326 104.679 223.464 104.679 223.74ZM104.679 210.584V217.346C104.679 217.591 104.802 217.714 105.047 217.714H106.197C110.674 217.714 112.913 216.38 112.913 213.712C112.913 211.167 111.042 209.894 107.301 209.894C106.412 209.894 105.66 209.955 105.047 210.078C104.802 210.139 104.679 210.308 104.679 210.584ZM99.573 238.092C98.837 238.031 98.2236 237.709 97.733 237.126C97.2423 236.543 96.997 235.884 96.997 235.148V207.272C96.997 206.505 97.2423 205.846 97.733 205.294C98.2543 204.711 98.883 204.389 99.619 204.328C102.011 204.083 104.357 203.96 106.657 203.96C115.55 203.96 119.997 206.827 119.997 212.562C119.997 214.494 119.368 216.135 118.111 217.484C116.884 218.833 115.228 219.692 113.143 220.06C113.112 220.06 113.097 220.091 113.097 220.152C113.097 220.183 113.128 220.198 113.189 220.198C115.612 220.535 117.528 221.455 118.939 222.958C120.38 224.461 121.101 226.255 121.101 228.34C121.101 231.744 119.966 234.289 117.697 235.976C115.458 237.632 111.932 238.46 107.117 238.46C104.694 238.46 102.18 238.337 99.573 238.092ZM148.787 221.21C148.787 214.003 146.211 210.4 141.059 210.4C135.907 210.4 133.331 214.003 133.331 221.21C133.331 228.417 135.907 232.02 141.059 232.02C146.211 232.02 148.787 228.417 148.787 221.21ZM152.559 233.906C149.737 236.942 145.904 238.46 141.059 238.46C136.213 238.46 132.38 236.942 129.559 233.906C126.737 230.839 125.327 226.607 125.327 221.21C125.327 215.813 126.737 211.596 129.559 208.56C132.38 205.493 136.213 203.96 141.059 203.96C145.904 203.96 149.737 205.493 152.559 208.56C155.38 211.596 156.791 215.813 156.791 221.21C156.791 226.607 155.38 230.839 152.559 233.906ZM165.719 238C165.013 238 164.4 237.739 163.879 237.218C163.357 236.697 163.097 236.083 163.097 235.378V207.042C163.097 206.337 163.357 205.723 163.879 205.202C164.4 204.681 165.013 204.42 165.719 204.42H168.571C169.276 204.42 169.874 204.681 170.365 205.202C170.886 205.723 171.147 206.337 171.147 207.042V231.146C171.147 231.391 171.285 231.514 171.561 231.514H182.739C183.444 231.514 184.057 231.775 184.579 232.296C185.1 232.817 185.361 233.431 185.361 234.136V235.378C185.361 236.083 185.1 236.697 184.579 237.218C184.057 237.739 183.444 238 182.739 238H165.719ZM187.152 210.906C186.447 210.906 185.833 210.645 185.312 210.124C184.791 209.603 184.53 208.989 184.53 208.284V207.042C184.53 206.337 184.791 205.723 185.312 205.202C185.833 204.681 186.447 204.42 187.152 204.42H207.668C208.373 204.42 208.987 204.681 209.508 205.202C210.029 205.723 210.29 206.337 210.29 207.042V208.284C210.29 208.989 210.029 209.603 209.508 210.124C208.987 210.645 208.373 210.906 207.668 210.906H201.78C201.535 210.906 201.412 211.029 201.412 211.274V235.378C201.412 236.083 201.151 236.697 200.63 237.218C200.109 237.739 199.495 238 198.79 238H196.03C195.325 238 194.711 237.739 194.19 237.218C193.669 236.697 193.408 236.083 193.408 235.378V211.274C193.408 211.029 193.285 210.906 193.04 210.906H187.152Z" fill="url(#paint0_linear_3_274)"/>
<path d="M0 181.732C0 178.418 2.68629 175.732 6 175.732H88.5L101 187.732H6C2.68629 187.732 0 185.045 0 181.732Z" fill="url(#paint1_linear_3_274)" fill-opacity="0.988235"/>
<path d="M0 152.732C0 149.418 2.68629 146.732 6 146.732H98V158.732H6C2.68629 158.732 0 156.045 0 152.732Z" fill="url(#paint2_linear_3_274)" fill-opacity="0.988235"/>
<path d="M89.7755 155.194L98 146.732L139 187.732H122.5L89.7755 155.194Z" fill="url(#paint3_linear_3_274)" fill-opacity="0.988235"/>
<path d="M0 123.732C0 120.418 2.68629 117.732 6 117.732H104V129.732H6C2.68629 129.732 0 127.045 0 123.732Z" fill="url(#paint4_linear_3_274)" fill-opacity="0.988235"/>
<path d="M96.2987 125.576L104 117.732L175.325 187.732L158.788 187.732L96.2987 125.576Z" fill="url(#paint5_linear_3_274)" fill-opacity="0.988235"/>
<path d="M0 6C0 9.31371 2.68629 12 6 12H88.5L101 0H6C2.68629 0 0 2.68629 0 6Z" fill="url(#paint6_linear_3_274)" fill-opacity="0.988235"/>
<path d="M0 35C0 38.3137 2.68629 41 6 41H98V29H6C2.68629 29 0 31.6863 0 35Z" fill="url(#paint7_linear_3_274)" fill-opacity="0.988235"/>
<path d="M89.7755 32.5377L98 41L139 1.97032e-05L122.5 1.10787e-05L89.7755 32.5377Z" fill="url(#paint8_linear_3_274)" fill-opacity="0.988235"/>
<path d="M0 64C0 67.3137 2.68629 70 6 70H104V58H6C2.68629 58 0 60.6863 0 64Z" fill="url(#paint9_linear_3_274)" fill-opacity="0.988235"/>
<path d="M96.2987 62.1559L104 70L175.325 8.73078e-05L158.788 3.96735e-06L96.2987 62.1559Z" fill="url(#paint10_linear_3_274)" fill-opacity="0.988235"/>
<path d="M0 93.7316C0 90.4179 2.68629 87.7316 6 87.7316H119V99.7316H6C2.68629 99.7316 0 97.0453 0 93.7316Z" fill="url(#paint11_linear_3_274)" fill-opacity="0.988235"/>
<path d="M107.149 97.2683L114.831 89.4056L214.1 187.177L197.543 187.177L107.149 97.2683Z" fill="url(#paint12_linear_3_274)" fill-opacity="0.988235"/>
<path d="M107.102 89.9186L114.785 97.7813L214.054 0.0102287L197.497 0.0102312L107.102 89.9186Z" fill="url(#paint13_linear_3_274)" fill-opacity="0.988235"/>
<defs>
<linearGradient id="paint0_linear_3_274" x1="-16.585" y1="200.5" x2="196.423" y2="236.222" gradientUnits="userSpaceOnUse">
<stop stop-color="#5E3ADB"/>
<stop offset="1" stop-color="#6B13B7"/>
</linearGradient>
<linearGradient id="paint1_linear_3_274" x1="-8.49999" y1="-5.08468e-06" x2="214" y2="188" gradientUnits="userSpaceOnUse">
<stop stop-color="#4963DC"/>
<stop offset="1" stop-color="#6C18B7"/>
</linearGradient>
<linearGradient id="paint2_linear_3_274" x1="-8.49999" y1="-5.08468e-06" x2="214" y2="188" gradientUnits="userSpaceOnUse">
<stop stop-color="#4963DC"/>
<stop offset="1" stop-color="#6C18B7"/>
</linearGradient>
<linearGradient id="paint3_linear_3_274" x1="-8.49999" y1="-5.08468e-06" x2="214" y2="188" gradientUnits="userSpaceOnUse">
<stop stop-color="#4963DC"/>
<stop offset="1" stop-color="#6C18B7"/>
</linearGradient>
<linearGradient id="paint4_linear_3_274" x1="-8.49999" y1="-5.08468e-06" x2="214" y2="188" gradientUnits="userSpaceOnUse">
<stop stop-color="#4963DC"/>
<stop offset="1" stop-color="#6C18B7"/>
</linearGradient>
<linearGradient id="paint5_linear_3_274" x1="-8.49999" y1="-5.08468e-06" x2="214" y2="188" gradientUnits="userSpaceOnUse">
<stop stop-color="#4963DC"/>
<stop offset="1" stop-color="#6C18B7"/>
</linearGradient>
<linearGradient id="paint6_linear_3_274" x1="-8.49999" y1="-5.08468e-06" x2="214" y2="188" gradientUnits="userSpaceOnUse">
<stop stop-color="#4963DC"/>
<stop offset="1" stop-color="#6C18B7"/>
</linearGradient>
<linearGradient id="paint7_linear_3_274" x1="-8.49999" y1="-5.08468e-06" x2="214" y2="188" gradientUnits="userSpaceOnUse">
<stop stop-color="#4963DC"/>
<stop offset="1" stop-color="#6C18B7"/>
</linearGradient>
<linearGradient id="paint8_linear_3_274" x1="-8.49999" y1="-5.08468e-06" x2="214" y2="188" gradientUnits="userSpaceOnUse">
<stop stop-color="#4963DC"/>
<stop offset="1" stop-color="#6C18B7"/>
</linearGradient>
<linearGradient id="paint9_linear_3_274" x1="-8.49999" y1="-5.08468e-06" x2="214" y2="188" gradientUnits="userSpaceOnUse">
<stop stop-color="#4963DC"/>
<stop offset="1" stop-color="#6C18B7"/>
</linearGradient>
<linearGradient id="paint10_linear_3_274" x1="-8.49999" y1="-5.08468e-06" x2="214" y2="188" gradientUnits="userSpaceOnUse">
<stop stop-color="#4963DC"/>
<stop offset="1" stop-color="#6C18B7"/>
</linearGradient>
<linearGradient id="paint11_linear_3_274" x1="-8.49999" y1="-5.08468e-06" x2="214" y2="188" gradientUnits="userSpaceOnUse">
<stop stop-color="#4963DC"/>
<stop offset="1" stop-color="#6C18B7"/>
</linearGradient>
<linearGradient id="paint12_linear_3_274" x1="-8.49999" y1="-5.08468e-06" x2="214" y2="188" gradientUnits="userSpaceOnUse">
<stop stop-color="#4963DC"/>
<stop offset="1" stop-color="#6C18B7"/>
</linearGradient>
<linearGradient id="paint13_linear_3_274" x1="-8.49999" y1="-5.08468e-06" x2="214" y2="188" gradientUnits="userSpaceOnUse">
<stop stop-color="#4963DC"/>
<stop offset="1" stop-color="#6C18B7"/>
</linearGradient>
</defs>
</svg>
